<svg width="1147" height="1174" viewBox="0 0 1147 1174" fill="none" xmlns="http://www.w3.org/2000/svg">
<g clip-path="url(#clip0_66_6)">
<path d="M573.513 1173.98C890.255 1173.98 1147.03 1022.7 1147.03 836.084C1147.03 649.471 890.255 498.192 573.513 498.192C256.77 498.192 0 649.471 0 836.084C0 1022.7 256.77 1173.98 573.513 1173.98Z" fill="#F5F5F5"/>
<path d="M575.946 1152.85C615.886 1152.85 648.263 1133.77 648.263 1110.24C648.263 1086.7 615.886 1067.63 575.946 1067.63C536.007 1067.63 503.63 1086.7 503.63 1110.24C503.63 1133.77 536.007 1152.85 575.946 1152.85Z" fill="#E0E0E0"/>
<path d="M194.115 904.138C234.054 904.138 266.431 885.061 266.431 861.529C266.431 837.996 234.054 818.919 194.115 818.919C154.176 818.919 121.799 837.996 121.799 861.529C121.799 885.061 154.176 904.138 194.115 904.138Z" fill="#E0E0E0"/>
<path d="M861.473 1041.25C890.687 1041.25 914.368 1027.3 914.368 1010.09C914.368 992.873 890.687 978.919 861.473 978.919C832.26 978.919 808.579 992.873 808.579 1010.09C808.579 1027.3 832.26 1041.25 861.473 1041.25Z" fill="#E0E0E0"/>
<path d="M324.822 793.097C354.035 793.097 377.716 779.143 377.716 761.931C377.716 744.718 354.035 730.764 324.822 730.764C295.609 730.764 271.927 744.718 271.927 761.931C271.927 779.143 295.609 793.097 324.822 793.097Z" fill="#E0E0E0"/>
<path d="M787.902 892.671L591.303 779.145C578.606 771.818 562.974 771.818 550.277 779.145L359.073 889.785C352.724 893.448 352.724 902.633 359.073 906.297L555.672 1019.82C568.369 1027.15 584.001 1027.15 596.698 1019.82L787.902 909.182C794.276 905.519 794.276 896.334 787.902 892.671Z" fill="#E0E0E0"/>
<path d="M294.861 638.142V761.956H294.886C294.886 766.372 297.797 770.789 303.618 774.151C315.286 780.877 334.181 780.877 345.824 774.151C351.645 770.789 354.556 766.372 354.556 761.956V638.142H294.861Z" fill="#37474F"/>
<path d="M345.849 650.337C334.181 657.062 315.286 657.062 303.644 650.337C291.976 643.612 291.976 632.696 303.644 625.971C315.312 619.245 334.206 619.245 345.849 625.971C357.492 632.696 357.492 643.612 345.849 650.337Z" fill="#455A64"/>
<path d="M317.72 4.04004V636.485C317.72 637.514 318.398 638.543 319.778 639.346C322.513 640.927 326.954 640.927 329.69 639.346C331.045 638.568 331.747 637.514 331.747 636.485V4.04004H317.72Z" fill="#37474F"/>
<path d="M329.664 6.90079C326.929 8.48172 322.488 8.48172 319.753 6.90079C317.018 5.31986 317.018 2.76027 319.753 1.17935C322.488 -0.401579 326.929 -0.401579 329.664 1.17935C332.4 2.76027 332.4 5.31986 329.664 6.90079Z" fill="#455A64"/>
<path d="M255.29 258.995V364.716C255.29 380.827 260.309 396.536 269.618 409.685C277.296 420.5 286.706 435.958 294.334 455.18C297.195 462.357 307.834 460.35 307.834 452.621V382.859C307.834 372.044 305.149 361.429 300.055 351.893L294.761 342.031L255.29 258.995Z" fill="#BB2525"/>
<path d="M317.72 68.6318C317.72 68.6318 298.324 126.373 282.491 165.118C266.657 203.864 242.87 247.904 262.567 285.168C282.29 322.458 294.761 342.057 294.761 342.057C294.761 342.057 287.785 330.689 297.37 293.876C306.956 257.063 317.72 238.82 317.72 238.82V68.6318Z" fill="#BB2525"/>
<path opacity="0.3" d="M317.72 68.6318C317.72 68.6318 298.324 126.373 282.491 165.118C266.657 203.864 242.87 247.904 262.567 285.168C282.29 322.458 294.761 342.057 294.761 342.057C294.761 342.057 287.785 330.689 297.37 293.876C306.956 257.063 317.72 238.82 317.72 238.82V68.6318Z" fill="black"/>
<path d="M307.834 382.859C307.834 400.676 304.396 418.317 297.697 434.854C294.711 442.232 290.871 451.241 286.029 462.056C268.138 502.006 265.779 509.333 265.779 509.333V619.848C265.779 619.848 276.494 608.681 281.537 595.632C284.724 587.426 294.309 565.895 300.984 551.09C305.475 541.102 307.809 530.287 307.809 519.321V406.824V382.859H307.834Z" fill="#BB2525"/>
<path opacity="0.3" d="M307.834 382.859C307.834 400.676 304.396 418.317 297.697 434.854C294.711 442.232 290.871 451.241 286.029 462.056C268.138 502.006 265.779 509.333 265.779 509.333V619.848C265.779 619.848 276.494 608.681 281.537 595.632C284.724 587.426 294.309 565.895 300.984 551.09C305.475 541.102 307.809 530.287 307.809 519.321V406.824V382.859H307.834Z" fill="black"/>
<path d="M324.822 74.7798C322.513 74.7798 320.23 74.2528 318.423 73.224C316.491 72.0948 315.412 70.5389 315.412 68.8074C315.412 68.1048 315.964 67.5527 316.666 67.5527C317.369 67.5527 317.921 68.1048 317.921 68.8074C317.921 69.5854 318.574 70.4135 319.678 71.0408C322.463 72.6468 327.155 72.6468 329.94 71.0408C331.07 70.3884 331.697 69.5854 331.697 68.8074C331.697 68.1048 332.249 67.5527 332.951 67.5527C333.654 67.5527 334.206 68.1048 334.206 68.8074C334.206 70.5389 333.127 72.0948 331.195 73.224C329.413 74.2528 327.13 74.7798 324.822 74.7798Z" fill="#BB2525"/>
<path d="M324.822 240.476C322.513 240.476 320.23 239.949 318.423 238.92C316.491 237.791 315.412 236.235 315.412 234.504C315.412 233.801 315.964 233.249 316.666 233.249C317.369 233.249 317.921 233.801 317.921 234.504C317.921 235.282 318.574 236.11 319.678 236.737C322.463 238.343 327.155 238.343 329.94 236.737C331.07 236.085 331.697 235.282 331.697 234.504C331.697 233.801 332.249 233.249 332.951 233.249C333.654 233.249 334.206 233.801 334.206 234.504C334.206 236.235 333.127 237.791 331.195 238.92C329.413 239.974 327.13 240.476 324.822 240.476Z" fill="#BB2525"/>
<path d="M831.613 886.698V1010.51H831.638C831.638 1014.93 834.549 1019.35 840.371 1022.71C852.038 1029.43 870.933 1029.43 882.576 1022.71C888.397 1019.35 891.308 1014.93 891.308 1010.51V886.698H831.613Z" fill="#37474F"/>
<path d="M882.601 898.894C870.933 905.619 852.038 905.619 840.396 898.894C828.728 892.168 828.728 881.253 840.396 874.527C852.063 867.802 870.958 867.802 882.601 874.527C894.244 881.253 894.244 892.143 882.601 898.894Z" fill="#455A64"/>
<path d="M854.472 252.597V885.042C854.472 886.071 855.15 887.1 856.53 887.903C859.265 889.484 863.706 889.484 866.441 887.903C867.822 887.125 868.499 886.071 868.499 885.042V252.597H854.472Z" fill="#37474F"/>
<path d="M861.473 256.637C865.34 256.637 868.474 254.828 868.474 252.597C868.474 250.365 865.34 248.557 861.473 248.557C857.607 248.557 854.472 250.365 854.472 252.597C854.472 254.828 857.607 256.637 861.473 256.637Z" fill="#455A64"/>
<path d="M792.042 507.552V613.273C792.042 629.383 797.061 645.092 806.37 658.242C814.049 669.057 823.458 684.515 831.086 703.737C833.947 710.914 844.586 708.906 844.586 701.177V631.416C844.586 620.6 841.901 609.986 836.807 600.45L831.513 590.588L792.042 507.552Z" fill="#BB2525"/>
<path d="M854.472 317.188C854.472 317.188 835.076 374.93 819.243 413.675C803.409 452.42 779.622 496.46 799.319 533.725C819.042 571.015 831.513 590.613 831.513 590.613C831.513 590.613 824.537 579.246 834.122 542.433C843.708 505.62 854.472 487.376 854.472 487.376V317.188Z" fill="#BB2525"/>
<path opacity="0.3" d="M854.472 317.188C854.472 317.188 835.076 374.93 819.243 413.675C803.409 452.42 779.622 496.46 799.319 533.725C819.042 571.015 831.513 590.613 831.513 590.613C831.513 590.613 824.537 579.246 834.122 542.433C843.708 505.62 854.472 487.376 854.472 487.376V317.188Z" fill="black"/>
<path d="M844.611 631.416C844.611 649.233 841.173 666.874 834.474 683.411C831.488 690.789 827.649 699.797 822.806 710.613C804.915 750.563 802.556 757.89 802.556 757.89V868.404C802.556 868.404 813.271 857.237 818.314 844.188C821.501 835.983 831.086 814.452 837.761 799.647C842.252 789.659 844.586 778.844 844.586 767.877V655.381V631.416H844.611Z" fill="#BB2525"/>
<path opacity="0.3" d="M844.611 631.416C844.611 649.233 841.173 666.874 834.474 683.411C831.488 690.789 827.649 699.797 822.806 710.613C804.915 750.563 802.556 757.89 802.556 757.89V868.404C802.556 868.404 813.271 857.237 818.314 844.188C821.501 835.983 831.086 814.452 837.761 799.647C842.252 789.659 844.586 778.844 844.586 767.877V655.381V631.416H844.611Z" fill="black"/>
<path d="M861.573 323.312C859.265 323.312 856.982 322.785 855.175 321.756C853.243 320.627 852.164 319.071 852.164 317.34C852.164 316.637 852.716 316.085 853.418 316.085C854.121 316.085 854.673 316.637 854.673 317.34C854.673 318.118 855.325 318.946 856.43 319.573C859.215 321.179 863.907 321.179 866.692 319.573C867.822 318.921 868.449 318.118 868.449 317.34C868.449 316.637 869.001 316.085 869.703 316.085C870.406 316.085 870.958 316.637 870.958 317.34C870.958 319.071 869.879 320.627 867.947 321.756C866.165 322.81 863.882 323.312 861.573 323.312Z" fill="#BB2525"/>
<path d="M861.573 489.033C859.265 489.033 856.982 488.506 855.175 487.477C853.243 486.348 852.164 484.792 852.164 483.06C852.164 482.358 852.716 481.806 853.418 481.806C854.121 481.806 854.673 482.358 854.673 483.06C854.673 483.838 855.325 484.666 856.43 485.294C859.215 486.9 863.907 486.9 866.692 485.294C867.822 484.641 868.449 483.838 868.449 483.06C868.449 482.358 869.001 481.806 869.703 481.806C870.406 481.806 870.958 482.358 870.958 483.06C870.958 484.792 869.879 486.348 867.947 487.477C866.165 488.506 863.882 489.033 861.573 489.033Z" fill="#BB2525"/>
<path d="M420.8 171.267C416.459 167.728 413.774 162.584 413.423 156.988C412.896 148.833 412.193 137.565 412.193 135.006C412.193 130.89 412.118 121.681 406.297 124.291C400.5 126.9 398.493 140.702 399.02 148.607C399.02 148.607 369.386 116.938 365.873 113.801C362.36 110.664 357.166 110.012 355.71 113.801C354.255 117.59 358.37 124.491 372.447 142.434C372.447 142.434 364.643 141.907 363.414 151.216C363.414 151.216 355.585 153.876 358.696 162.91C358.696 162.91 350.014 166.976 356.764 176.712C363.514 186.448 400.199 202.132 400.199 202.132L420.8 171.267Z" fill="#FFA8A7"/>
<path d="M422.13 168.857C422.13 168.857 400.224 195.056 395.156 206.9L465.264 256.938C476.054 264.641 489.453 267.728 502.526 265.495L585.984 251.342L614.413 194.554H604.703C599.634 194.554 594.565 195.056 589.597 196.034L494.271 214.855L422.13 168.857Z" fill="#37474F"/>
<path d="M611.001 809.357H621.941C621.941 809.357 627.411 812.519 627.01 821.804C626.608 831.114 628.164 844.79 628.365 850.712C628.565 856.635 620.486 862.08 608.316 861.026C596.146 859.972 584.98 858.943 576.499 863.41C568.017 867.852 547.366 880.524 528.296 867.776C509.226 855.054 517.557 846.12 519.89 846.271C522.224 846.421 555.22 837.488 564.78 830.311C574.341 823.134 589.722 809.96 589.722 809.96L611.001 809.357Z" fill="#263238"/>
<path d="M589.697 787.827V817.488C589.697 817.488 593.486 823.385 606.108 821.83C618.729 820.249 621.966 814.477 621.966 814.477V787.827H589.697Z" fill="#FFA8A7"/>
<path d="M721.583 851.817C721.583 851.817 735.911 850.236 737.09 859.044C738.269 867.852 740.678 887.652 736.689 892.62C732.699 897.589 721.633 907.376 718.697 912.394C715.762 917.413 701.108 942.181 675.589 944.364C650.07 946.522 644.499 925.418 652.93 918.317C661.361 911.19 683.844 896.033 688.888 881.955C693.931 867.877 701.233 856.058 701.233 856.058L721.583 851.817Z" fill="#263238"/>
<path d="M700.029 837.262L701.76 864.389C701.76 864.389 713.152 877.94 731.871 862.131C733.251 860.951 734.029 859.22 733.928 857.413L732.348 832.771L700.029 837.262Z" fill="#FFA8A7"/>
<path d="M576.473 424.365L572.76 629.384L579.936 802.031C579.936 802.031 603.824 814.101 635.566 802.031L646.18 632.37L659.63 437.439L576.473 424.365Z" fill="#37474F"/>
<path d="M641.613 530.438L646.205 632.37L653.231 530.438H641.613Z" fill="#263238"/>
<path d="M652.604 539.723L656.794 478.92L610.725 477.991C608.818 475.532 613.61 510.087 652.604 539.723Z" fill="#263238"/>
<path d="M592.382 448.305C592.382 448.305 603.172 498.092 648.012 517.791L658.701 669.961C658.852 672.019 659.128 674.077 659.504 676.084L692.978 846.924C692.978 846.924 710.843 863.01 742.686 846.924L741.557 703.06C741.406 685.469 738.345 668.004 732.473 651.417L729.111 448.28H592.382V448.305Z" fill="#37474F"/>
<path d="M603.021 427.678C603.021 427.678 615.467 465.972 680.231 452.521V237.741H603.021V427.678Z" fill="#F0F0F0"/>
<path d="M609.219 90.4639C609.219 90.4639 583.324 100.903 597.15 141.079L609.219 90.4639Z" fill="#263238"/>
<path d="M625.027 235.658L628.54 253.952L637.072 256.913L657.949 241.304L625.027 235.658Z" fill="#455A64"/>
<path d="M682.263 168.857V210.338C682.263 210.338 656.493 245.946 635.616 245.946V192.948L682.263 168.857Z" fill="#FFA8A7"/>
<path d="M635.591 207.001C651.249 201.932 667.434 191.568 672.502 177.992C673.054 176.537 673.531 174.906 673.983 173.124L635.591 192.973V207.001Z" fill="#F28F8F"/>
<path d="M635.591 245.921L635.742 196.009C635.742 196.009 627.612 193.901 624.099 196.486C620.586 199.071 601.541 252.295 601.541 252.295C601.541 252.295 620.687 240.125 624.099 239.271C627.487 238.393 635.742 248.23 635.742 248.23L635.591 245.921Z" fill="#E0E0E0"/>
<path d="M627.486 196.963C627.486 196.963 607.438 235.357 607.438 266.925C607.438 298.493 607.438 478.593 607.438 478.593C607.438 478.593 582.446 478.995 568.946 460.5C568.946 460.5 568.946 285.695 568.946 268.029C568.946 250.363 578.431 207.327 614.388 194.554L627.486 196.963Z" fill="#455A64"/>
<path d="M617.901 195.206L593.511 223.336C592.131 224.917 591.755 227.126 592.533 229.083L599.258 246.172L587.815 265.319C586.435 267.627 586.184 270.438 587.113 272.947L607.438 327.778C607.438 299.924 607.438 276.536 607.438 266.925C607.438 235.357 627.487 196.963 627.487 196.963L617.901 195.206Z" fill="#37474F"/>
<path d="M639.556 91.668C625.906 91.668 600.01 97.3141 597.802 128.657C595.594 159.999 596.949 198.945 623.17 201.178C641.363 202.709 674.56 189.409 682.263 168.857C689.941 148.305 689.088 91.668 639.556 91.668Z" fill="#FFA8A7"/>
<path d="M678.775 153.375C678.775 153.375 671.198 148.582 673.606 132.421C676.015 116.261 668.613 110.087 662.24 110.288C655.866 110.489 618.177 118.946 604.125 103.262C590.074 87.578 595.268 72.4463 612.607 72.4463C623.171 72.4463 633.308 80.2505 649.242 80.5266C665.2 80.8277 690.218 78.3685 691.974 104.291C691.974 104.291 707.23 100.125 702.387 129.234C697.545 158.318 690.92 177.992 682.163 184.215V161.907L678.775 153.375Z" fill="#263238"/>
<path d="M678.775 153.375C678.775 153.375 682.113 138.494 693.229 138.494C704.37 138.494 704.169 149.987 702.739 157.616C701.359 165.069 695.763 172.547 688.361 172.547C680.958 172.547 678.775 165.872 678.775 165.872V153.375Z" fill="#FFA8A7"/>
<path d="M690.569 105.369L701.936 98.3178C701.936 98.3178 696.265 93.5499 692.953 97.0129C689.615 100.451 690.569 105.369 690.569 105.369Z" fill="#263238"/>
<path d="M625.504 145.495V168.03L612.306 163.989L625.504 145.495Z" fill="#F28F8F"/>
<path d="M644.775 149.411C644.775 151.945 642.718 154.003 640.183 154.003C637.649 154.003 635.591 151.945 635.591 149.411C635.591 146.876 637.649 144.818 640.183 144.818C642.718 144.818 644.775 146.876 644.775 149.411Z" fill="#263238"/>
<path d="M614.589 146.198C614.589 148.732 612.532 150.79 609.997 150.79C607.463 150.79 605.405 148.732 605.405 146.198C605.405 143.663 607.463 141.605 609.997 141.605C612.532 141.605 614.589 143.663 614.589 146.198Z" fill="#263238"/>
<path d="M604.401 136.637L613.385 131.317C613.385 131.317 609.947 127.729 606.509 129.887C603.072 132.02 604.401 136.637 604.401 136.637Z" fill="#263238"/>
<path d="M642.592 135.081L650.697 141.681C650.697 141.681 652.88 137.214 649.668 134.73C646.457 132.246 642.592 135.081 642.592 135.081Z" fill="#263238"/>
<path d="M619.306 177.164C619.306 177.164 626.583 177.816 631.677 173.852C631.677 173.852 632.53 180.351 627.06 181.606C621.59 182.86 619.306 177.164 619.306 177.164Z" fill="#F28F8F"/>
<path d="M635.591 245.921C635.591 245.921 667.91 229.811 682.238 210.313V199.999L682.514 200.074C686.705 201.354 690.142 204.365 691.974 208.355L698.598 222.784L669.416 271.291C669.416 271.291 653.708 243.638 648.163 244.014C642.617 244.39 635.717 248.23 635.717 248.23L635.591 245.921Z" fill="#E0E0E0"/>
<path d="M695.738 216.536L657.798 281.429C657.07 282.684 656.694 284.089 656.694 285.52V486.699C656.694 486.699 698.523 505.143 732.323 477.364V272.521L737.291 245.143C737.266 245.168 709.213 222.734 695.738 216.536Z" fill="#455A64"/>
<path d="M704.846 220.125L693.981 212.672L694.107 212.923C695.136 215.181 695.01 217.791 693.756 219.949L657.798 281.43C657.07 282.684 656.694 284.09 656.694 285.52V290.313V348.104L684.296 303.889C685.701 301.63 685.826 298.795 684.597 296.436L675.689 279.322L699.05 265.821C701.158 264.591 702.563 262.408 702.789 259.974L706.151 222.86C706.227 221.806 705.725 220.752 704.846 220.125Z" fill="#37474F"/>
<path d="M622.041 266.523C622.041 266.523 613.184 359.296 613.535 395.984L628.013 424.365L646.205 404.265L635.441 271.392L622.041 266.523Z" fill="#37474F"/>
<path d="M624.45 244.767C624.45 244.767 641.162 247.377 647.535 251.015C652.729 253.977 642.843 265.62 639.004 269.811C638.075 270.84 636.771 271.392 635.391 271.392C631.602 271.392 623.823 270.79 619.808 266.197C617.525 263.537 618.001 243.588 624.45 244.767Z" fill="#455A64"/>
<path d="M561.794 537.013L382.183 433.299L485.639 371.994L665.276 475.708L561.794 537.013Z" fill="#BB2525"/>
<path opacity="0.1" d="M561.794 537.013L382.183 433.299L485.639 371.994L665.276 475.708L561.794 537.013Z" fill="black"/>
<path opacity="0.3" d="M561.794 537.013L485.639 371.994L665.276 475.708L561.794 537.013Z" fill="black"/>
<path d="M537.906 248.908C532.16 243.387 530.404 235.909 537.505 228.531C544.606 221.154 555.019 219.648 560.74 225.169C566.487 230.689 565.383 241.154 558.281 248.531C551.18 255.884 543.653 254.428 537.906 248.908Z" fill="#BB2525"/>
<path opacity="0.2" d="M537.906 248.908C532.16 243.387 530.404 235.909 537.505 228.531C544.606 221.154 555.019 219.648 560.74 225.169C566.487 230.689 565.383 241.154 558.281 248.531C551.18 255.884 543.653 254.428 537.906 248.908Z" fill="black"/>
<path d="M541.143 239.999C542.624 238.569 548.646 240.3 546.915 245.871C546.915 245.871 538.132 257.214 533.54 264.165C532.486 265.746 524.356 262.76 527.167 257.691C529.074 254.253 534.77 246.122 541.143 239.999Z" fill="#BB2525"/>
<path d="M506.29 357.917H506.265C505.186 357.891 504.308 357.013 504.308 355.909C505.236 294.328 527.518 261.53 528.472 260.15C529.099 259.247 530.328 259.021 531.232 259.648C532.135 260.276 532.361 261.505 531.734 262.409C531.508 262.735 509.176 295.683 508.272 355.959C508.247 357.063 507.369 357.917 506.29 357.917Z" fill="#BB2525"/>
<g opacity="0.5">
<path d="M506.29 357.917H506.265C505.186 357.891 504.308 357.013 504.308 355.909C505.236 294.328 527.518 261.53 528.472 260.15C529.099 259.247 530.328 259.021 531.232 259.648C532.135 260.276 532.361 261.505 531.734 262.409C531.508 262.735 509.176 295.683 508.272 355.959C508.247 357.063 507.369 357.917 506.29 357.917Z" fill="black"/>
</g>
<path d="M392.195 416.762L495.224 356.938V347.151C495.224 334.002 482.377 324.717 469.881 328.833L425.442 343.487C425.442 343.487 400.776 349.134 400.776 320.2L392.195 324.943V416.762Z" fill="#BB2525"/>
<path opacity="0.3" d="M392.195 416.762L495.224 356.938V347.151C495.224 334.002 482.377 324.717 469.881 328.833L425.442 343.487C425.442 343.487 400.776 349.134 400.776 320.2L392.195 324.943V416.762Z" fill="black"/>
<path d="M425.442 343.463L469.881 328.808C474.874 327.176 479.893 327.678 484.159 329.711C479.291 325.57 472.415 323.839 465.64 326.072L421.202 340.727C421.202 340.727 414.101 342.358 407.501 339.372C414.803 345.897 425.442 343.463 425.442 343.463Z" fill="#BB2525"/>
<g opacity="0.5">
<path d="M425.442 343.463L469.881 328.808C474.874 327.176 479.893 327.678 484.159 329.711C479.291 325.57 472.415 323.839 465.64 326.072L421.202 340.727C421.202 340.727 414.101 342.358 407.501 339.372C414.803 345.897 425.442 343.463 425.442 343.463Z" fill="black"/>
</g>
<path d="M495.224 356.912L639.481 440.927L547.216 494.879L402.257 413.324L495.224 356.912Z" fill="#BB2525"/>
<path opacity="0.1" d="M495.224 356.912L639.481 440.927L547.216 494.879L402.257 413.324L495.224 356.912Z" fill="black"/>
<path d="M554.016 504.29L407.2 419.522V435.859L554.016 520.626V504.29Z" fill="#BB2525"/>
<path opacity="0.3" d="M554.016 504.29L407.2 419.522V435.859L554.016 520.626V504.29Z" fill="black"/>
<path d="M554.016 504.29L639.18 454.202V470.563L554.016 520.626V504.29Z" fill="#BB2525"/>
<path opacity="0.5" d="M554.016 504.29L639.18 454.202V470.563L554.016 520.626V504.29Z" fill="black"/>
<path d="M407.476 307.553L382.183 322.885V411.317L562.246 515.708V423.864L537.078 384.341L407.476 307.553Z" fill="#BB2525"/>
<path d="M407.476 307.552L416.058 302.81L545.66 379.597L537.078 384.34L407.476 307.552Z" fill="#BB2525"/>
<path opacity="0.1" d="M407.476 307.552L416.058 302.81L545.66 379.597L537.078 384.34L407.476 307.552Z" fill="black"/>
<path d="M537.078 384.34L545.66 379.598L570.828 419.121L562.246 423.864L537.078 384.34Z" fill="#BB2525"/>
<path opacity="0.3" d="M537.078 384.34L545.66 379.598L570.828 419.121L562.246 423.864L537.078 384.34Z" fill="black"/>
<path d="M562.246 515.707L665.276 455.883V446.097C665.276 432.947 652.428 423.662 639.932 427.778L595.494 442.433C595.494 442.433 570.828 448.079 570.828 419.146L562.246 423.888V515.707Z" fill="#BB2525"/>
<path opacity="0.3" d="M562.246 515.707L665.276 455.883V446.097C665.276 432.947 652.428 423.662 639.932 427.778L595.494 442.433C595.494 442.433 570.828 448.079 570.828 419.146L562.246 423.888V515.707Z" fill="black"/>
<path d="M595.494 442.408L639.932 427.753C644.926 426.122 649.944 426.624 654.21 428.656C649.342 424.516 642.467 422.784 635.692 425.018L591.253 439.673C591.253 439.673 584.152 441.304 577.552 438.318C584.854 444.842 595.494 442.408 595.494 442.408Z" fill="#BB2525"/>
<g opacity="0.5">
<path d="M595.494 442.408L639.932 427.753C644.926 426.122 649.944 426.624 654.21 428.656C649.342 424.516 642.467 422.784 635.692 425.018L591.253 439.673C591.253 439.673 584.152 441.304 577.552 438.318C584.854 444.842 595.494 442.408 595.494 442.408Z" fill="black"/>
</g>
<path d="M382.183 433.299V904.791L561.794 1008.5V537.013L382.183 433.299Z" fill="#BB2525"/>
<path d="M521.044 582.107L498.361 542.81L498.436 542.759L437.436 507.527L437.512 507.678L414.828 520.777V848.631L437.512 887.928L498.361 923.06L521.044 909.961V582.107Z" fill="#BB2525"/>
<path opacity="0.5" d="M521.044 582.107L498.361 542.81L498.436 542.759L437.436 507.527L437.512 507.678L414.828 520.777V848.631L437.512 887.928L498.361 923.06L521.044 909.961V582.107Z" fill="white"/>
<path d="M665.276 475.708V594.177C634.312 612.747 615.367 646.222 615.367 682.332V976.886L561.82 1008.5V537.013L665.276 475.708Z" fill="#BB2525"/>
<path opacity="0.3" d="M665.276 475.708V594.177C634.312 612.747 615.367 646.222 615.367 682.332V976.886L561.82 1008.5V537.013L665.276 475.708Z" fill="black"/>
<path d="M670.721 439.849C670.721 439.849 651.701 451.241 644.474 455.407C637.273 459.547 633.935 462.283 635.391 466.473C636.846 470.664 648.639 468.757 657.271 466.122C657.271 466.122 642.065 477.916 630.799 485.093C619.557 492.245 619.708 496.411 624.099 500.727C628.49 505.043 646.632 512.295 659.379 508.054C672.101 503.813 684.798 492.345 697.921 468.732C697.921 468.707 695.211 440.451 670.721 439.849Z" fill="#FFA8A7"/>
<path d="M737.266 245.169C737.266 245.169 699.151 272.572 719.827 325.721C740.503 378.87 740.503 378.87 740.503 378.87L667.86 439.723C667.86 439.723 692.978 449.761 698.297 471.467L775.331 415.206C790.261 404.315 796.434 385.043 790.638 367.502C777.113 326.599 752.271 256.511 737.266 245.169Z" fill="#37474F"/>
<path d="M193.889 780.325C193.889 780.325 157.355 744.641 178.156 684.867C189.824 651.366 228.417 626.774 250.423 624.44C250.423 624.44 238.479 638.192 233.234 653.424L205.532 671.843L231.001 663.863L225.581 685.67C225.581 685.67 201.894 699.999 198.381 703.11L223.9 696.435C223.9 696.435 221.943 758.142 193.889 780.325Z" fill="#BB2525"/>
<path opacity="0.4" d="M193.889 780.325C193.889 780.325 157.355 744.641 178.156 684.867C189.824 651.366 228.417 626.774 250.423 624.44C250.423 624.44 238.479 638.192 233.234 653.424L205.532 671.843L231.001 663.863L225.581 685.67C225.581 685.67 201.894 699.999 198.381 703.11L223.9 696.435C223.9 696.435 221.943 758.142 193.889 780.325Z" fill="black"/>
<path d="M193.889 780.324C193.889 780.324 174.97 705.645 202.973 662.106C202.948 662.081 170.152 700.525 193.889 780.324Z" fill="white"/>
<path d="M235.693 790.412L190.978 789.86H190.753H190.527L145.812 790.412C145.812 790.412 145.31 845.494 162.273 867.903C166.965 873.85 177.93 878.041 190.753 878.041C203.575 878.041 214.565 873.85 219.233 867.878C236.195 845.444 235.693 790.412 235.693 790.412Z" fill="#37474F"/>
<path d="M190.778 814.528C215.598 814.528 235.718 803.731 235.718 790.412C235.718 777.094 215.598 766.297 190.778 766.297C165.958 766.297 145.837 777.094 145.837 790.412C145.837 803.731 165.958 814.528 190.778 814.528Z" fill="#455A64"/>
<path d="M190.778 784.013C206.235 784.013 219.333 788.982 223.95 795.833C225.104 794.126 225.731 792.294 225.731 790.412C225.731 780.876 210.074 773.147 190.778 773.147C171.482 773.147 155.824 780.876 155.824 790.412C155.824 792.319 156.476 794.126 157.606 795.833C162.223 788.982 175.296 784.013 190.778 784.013Z" fill="#263238"/>
<path d="M190.778 784.013C175.321 784.013 162.222 788.981 157.605 795.832C162.222 802.708 175.321 807.651 190.778 807.651C206.235 807.651 219.333 802.683 223.95 795.832C219.333 788.981 206.235 784.013 190.778 784.013Z" fill="#E0E0E0"/>
<path d="M191.305 798.819C191.305 798.819 173.991 798.142 159.136 775.156C153.014 765.67 150.053 760.676 150.053 760.676L174.192 758.869L147.167 752.119L134.395 732.571L156.853 730.915C156.853 730.915 140.141 725.068 128.197 724.993C128.197 724.993 107.496 688.43 101.449 683.211C101.449 683.211 149.2 683.612 183.225 723.838C217.225 764.089 196.373 799.873 191.305 798.819Z" fill="#BB2525"/>
<path d="M191.305 798.819C191.305 798.819 202.145 733.574 133.015 694.327C133.015 694.352 204.754 728.806 191.305 798.819Z" fill="white"/>
<path d="M191.305 798.819C191.305 798.819 206.987 799.848 222.57 780.5C228.993 772.52 232.13 768.305 232.13 768.305L210.525 764.415L235.543 760.852L248.917 744.415L228.818 740.802C228.818 740.802 244.45 737.088 255.24 738.142C255.24 738.142 277.372 707.1 283.319 702.96C283.319 702.96 240.21 698.819 205.708 731.918C171.206 765.042 186.663 799.296 191.305 798.819Z" fill="#BB2525"/>
<path opacity="0.2" d="M191.305 798.819C191.305 798.819 206.987 799.848 222.57 780.5C228.993 772.52 232.13 768.305 232.13 768.305L210.525 764.415L235.543 760.852L248.917 744.415L228.818 740.802C228.818 740.802 244.45 737.088 255.24 738.142C255.24 738.142 277.372 707.1 283.319 702.96C283.319 702.96 240.21 698.819 205.708 731.918C171.206 765.042 186.663 799.296 191.305 798.819Z" fill="black"/>
<path d="M191.305 798.819C191.305 798.819 187.666 738.944 253.735 710.036C253.735 710.036 185.784 734.377 191.305 798.819Z" fill="white"/>
<path d="M579.058 1040.25C579.058 1040.25 542.523 1004.56 563.325 944.791C574.968 911.29 613.585 886.698 635.591 884.364C635.591 884.364 623.647 898.116 618.403 913.348L590.701 931.767L616.17 923.787L610.75 945.594C610.75 945.594 587.062 959.922 583.55 963.034L609.069 956.359C609.069 956.359 607.111 1018.07 579.058 1040.25Z" fill="#BB2525"/>
<path opacity="0.4" d="M579.058 1040.25C579.058 1040.25 542.523 1004.56 563.325 944.791C574.968 911.29 613.585 886.698 635.591 884.364C635.591 884.364 623.647 898.116 618.403 913.348L590.701 931.767L616.17 923.787L610.75 945.594C610.75 945.594 587.062 959.922 583.55 963.034L609.069 956.359C609.069 956.359 607.111 1018.07 579.058 1040.25Z" fill="black"/>
<path d="M579.058 1040.25C579.058 1040.25 560.138 965.568 588.142 922.03C588.142 922.03 555.321 960.449 579.058 1040.25Z" fill="white"/>
<path d="M620.887 1050.36L576.172 1049.81H575.947H575.721L531.006 1050.36C531.006 1050.36 530.504 1105.44 547.467 1127.85C552.159 1133.8 563.124 1137.99 575.947 1137.99C588.769 1137.99 599.759 1133.8 604.426 1127.83C621.389 1105.39 620.887 1050.36 620.887 1050.36Z" fill="#37474F"/>
<path d="M575.946 1074.48C600.766 1074.48 620.887 1063.68 620.887 1050.36C620.887 1037.04 600.766 1026.25 575.946 1026.25C551.126 1026.25 531.006 1037.04 531.006 1050.36C531.006 1063.68 551.126 1074.48 575.946 1074.48Z" fill="#455A64"/>
<path d="M575.946 1043.96C591.403 1043.96 604.502 1048.93 609.119 1055.78C610.273 1054.08 610.9 1052.24 610.9 1050.36C610.9 1040.83 595.242 1033.1 575.946 1033.1C556.65 1033.1 540.993 1040.83 540.993 1050.36C540.993 1052.27 541.645 1054.08 542.774 1055.78C547.391 1048.93 560.489 1043.96 575.946 1043.96Z" fill="#263238"/>
<path d="M575.946 1043.96C560.489 1043.96 547.391 1048.93 542.774 1055.78C547.391 1062.66 560.489 1067.6 575.946 1067.6C591.403 1067.6 604.502 1062.63 609.119 1055.78C604.502 1048.93 591.403 1043.96 575.946 1043.96Z" fill="#E0E0E0"/>
<path d="M576.499 1058.77C576.499 1058.77 559.185 1058.09 544.33 1035.1C538.207 1025.62 535.247 1020.62 535.247 1020.62L559.386 1018.82L532.361 1012.07L519.589 992.519L542.047 990.863C542.047 990.863 525.335 985.016 513.391 984.941C513.391 984.941 492.69 948.379 486.643 943.159C486.643 943.159 534.393 943.561 568.419 983.786C602.419 1024.01 581.542 1059.8 576.499 1058.77Z" fill="#BB2525"/>
<path opacity="0.3" d="M576.499 1058.77C576.499 1058.77 559.185 1058.09 544.33 1035.1C538.207 1025.62 535.247 1020.62 535.247 1020.62L559.386 1018.82L532.361 1012.07L519.589 992.519L542.047 990.863C542.047 990.863 525.335 985.016 513.391 984.941C513.391 984.941 492.69 948.379 486.643 943.159C486.643 943.159 534.393 943.561 568.419 983.786C602.419 1024.01 581.542 1059.8 576.499 1058.77Z" fill="white"/>
<path d="M576.498 1058.77C576.498 1058.77 587.338 993.522 518.209 954.275C518.209 954.275 589.948 988.755 576.498 1058.77Z" fill="white"/>
<path d="M576.499 1058.77C576.499 1058.77 592.181 1059.8 607.764 1040.45C614.187 1032.47 617.324 1028.25 617.324 1028.25L595.719 1024.36L620.736 1020.8L634.111 1004.36L614.012 1000.75C614.012 1000.75 629.644 997.037 640.434 998.091C640.434 998.091 662.566 967.05 668.512 962.909C668.512 962.909 625.404 958.768 590.902 991.868C556.374 1024.99 571.831 1059.22 576.499 1058.77Z" fill="#BB2525"/>
<path opacity="0.2" d="M576.499 1058.77C576.499 1058.77 592.181 1059.8 607.764 1040.45C614.187 1032.47 617.324 1028.25 617.324 1028.25L595.719 1024.36L620.736 1020.8L634.111 1004.36L614.012 1000.75C614.012 1000.75 629.644 997.037 640.434 998.091C640.434 998.091 662.566 967.05 668.512 962.909C668.512 962.909 625.404 958.768 590.902 991.868C556.374 1024.99 571.831 1059.22 576.499 1058.77Z" fill="black"/>
<path d="M576.498 1058.77C576.498 1058.77 572.86 998.894 638.928 969.985C638.928 969.985 570.953 994.327 576.498 1058.77Z" fill="white"/>
</g>
<defs>
<clipPath id="clip0_66_6">
<rect width="1147" height="1174" fill="white"/>
</clipPath>
</defs>
</svg>
